HIERARCHY
ROOT hip
{
  OFFSET 0 0 0
  CHANNELS 6 Xposition Yposition Zposition Zrotation Yrotation Xrotation
  JOINT abdomen
  {
    OFFSET 0 20.6881 -0.73152
    CHANNELS 3 Zrotation Xrotation Yrotation
    JOINT chest
    {
      OFFSET 0 11.7043 -0.48768
      CHANNELS 3 Zrotation Xrotation Yrotation
      JOINT neck
      {
        OFFSET 0 22.1894 -2.19456
        CHANNELS 3 Zrotation Xrotation Yrotation
        JOINT head
        {
          OFFSET -0.24384 7.07133 1.2192
          CHANNELS 3 Zrotation Xrotation Yrotation
          JOINT leftEye
          {
            OFFSET 4.14528 8.04674 8.04672
            CHANNELS 3 Zrotation Xrotation Yrotation
            End Site
            {
              OFFSET 1 0 0
            }
          }
          JOINT rightEye
          {
            OFFSET -3.6576 8.04674 8.04672
            CHANNELS 3 Zrotation Xrotation Yrotation
            End Site
            {
              OFFSET 1 0 0
            }
          }
        }
      }
      JOINT rCollar
      {
        OFFSET -2.68224 19.2634 -4.8768
        CHANNELS 3 Zrotation Xrotation Yrotation
        JOINT rShldr
        {
          OFFSET -8.77824 -1.95073 1.46304
          CHANNELS 3 Zrotation Xrotation Yrotation
          JOINT rForeArm
          {
            OFFSET -28.1742 -1.7115 0.48768
            CHANNELS 3 Zrotation Xrotation Yrotation
            JOINT rHand
            {
              OFFSET -22.5879 0.773209 7.07136
              CHANNELS 3 Zrotation Xrotation Yrotation
              JOINT rThumb1
              {
                OFFSET -1.2192 -0.487915 3.41376
                CHANNELS 3 Zrotation Xrotation Yrotation
                JOINT rThumb2
                {
                  OFFSET -3.37035 -0.52449 3.41376
                  CHANNELS 3 Zrotation Xrotation Yrotation
                  End Site
                  {
                    OFFSET -1.78271 -1.18214 1.43049
                  }
                }
              }
              JOINT rIndex1
              {
                OFFSET -7.75947 0.938293 5.60832
                CHANNELS 3 Zrotation Xrotation Yrotation
                JOINT rIndex2
                {
                  OFFSET -2.54057 -0.884171 1.56538
                  CHANNELS 3 Zrotation Xrotation Yrotation
                  End Site
                  {
                    OFFSET -1.62519 -0.234802 1.16502
                  }
                }
              }
              JOINT rMid1
              {
                OFFSET -8.24714 1.18213 3.41376
                CHANNELS 3 Zrotation Xrotation Yrotation
                JOINT rMid2
                {
                  OFFSET -3.10165 -0.590103 1.0647
                  CHANNELS 3 Zrotation Xrotation Yrotation
                  End Site
                  {
                    OFFSET -2.48547 -0.328903 0.83742
                  }
                }
              }
              JOINT rRing1
              {
                OFFSET -8.82822 0.546677 1.51678
                CHANNELS 3 Zrotation Xrotation Yrotation
                JOINT rRing2
                {
                  OFFSET -2.60934 -0.819778 -0.0198488
                  CHANNELS 3 Zrotation Xrotation Yrotation
                  End Site
                  {
                    OFFSET -2.33842 -0.294052 0.168128
                  }
                }
              }
              JOINT rPinky1
              {
                OFFSET -8.27202 -0.0477905 -0.4584
                CHANNELS 3 Zrotation Xrotation Yrotation
                JOINT rPinky2
                {
                  OFFSET -1.82734 -0.647385 -0.700984
                  CHANNELS 3 Zrotation Xrotation Yrotation
                  End Site
                  {
                    OFFSET -1.69225 -0.51767 -0.607171
                  }
                }
              }
            }
          }
        }
      }
      JOINT lCollar
      {
        OFFSET 2.68224 19.2634 -4.8768
        CHANNELS 3 Zrotation Xrotation Yrotation
        JOINT lShldr
        {
          OFFSET 8.77824 -1.95073 1.46304
          CHANNELS 3 Zrotation Xrotation Yrotation
          JOINT lForeArm
          {
            OFFSET 28.1742 -1.7115 0.48768
            CHANNELS 3 Zrotation Xrotation Yrotation
            JOINT lHand
            {
              OFFSET 22.5879 0.773209 7.07136
              CHANNELS 3 Zrotation Xrotation Yrotation
              JOINT lThumb1
              {
                OFFSET 1.2192 -0.487915 3.41376
                CHANNELS 3 Zrotation Xrotation Yrotation
                JOINT lThumb2
                {
                  OFFSET 3.37035 -0.52449 3.41376
                  CHANNELS 3 Zrotation Xrotation Yrotation
                  End Site
                  {
                    OFFSET 1.78271 -1.18214 1.43049
                  }
                }
              }
              JOINT lIndex1
              {
                OFFSET 7.75947 0.938293 5.60832
                CHANNELS 3 Zrotation Xrotation Yrotation
                JOINT lIndex2
                {
                  OFFSET 2.54057 -0.884171 1.56538
                  CHANNELS 3 Zrotation Xrotation Yrotation
                  End Site
                  {
                    OFFSET 1.62519 -0.234802 1.16502
                  }
                }
              }
              JOINT lMid1
              {
                OFFSET 8.24714 1.18213 3.41376
                CHANNELS 3 Zrotation Xrotation Yrotation
                JOINT lMid2
                {
                  OFFSET 3.10165 -0.590103 1.0647
                  CHANNELS 3 Zrotation Xrotation Yrotation
                  End Site
                  {
                    OFFSET 2.48547 -0.328903 0.83742
                  }
                }
              }
              JOINT lRing1
              {
                OFFSET 8.82822 0.546677 1.51678
                CHANNELS 3 Zrotation Xrotation Yrotation
                JOINT lRing2
                {
                  OFFSET 2.60934 -0.819778 -0.0198488
                  CHANNELS 3 Zrotation Xrotation Yrotation
                  End Site
                  {
                    OFFSET 2.33842 -0.294052 0.168128
                  }
                }
              }
              JOINT lPinky1
              {
                OFFSET 8.27202 -0.0477905 -0.4584
                CHANNELS 3 Zrotation Xrotation Yrotation
                JOINT lPinky2
                {
                  OFFSET 1.82734 -0.647385 -0.700984
                  CHANNELS 3 Zrotation Xrotation Yrotation
                  End Site
                  {
                    OFFSET 1.69225 -0.51767 -0.607171
                  }
                }
              }
            }
          }
        }
      }
    }
  }
  JOINT rButtock
  {
    OFFSET -8.77824 4.35084 1.2192
    CHANNELS 3 Zrotation Xrotation Yrotation
    JOINT rThigh
    {
      OFFSET 0 -1.70687 -2.19456
      CHANNELS 3 Zrotation Xrotation Yrotation
      JOINT rShin
      {
        OFFSET 0 -36.8199 0.73152
        CHANNELS 3 Zrotation Xrotation Yrotation
        JOINT rFoot
        {
          OFFSET 0.73152 -45.1104 -5.12064
          CHANNELS 3 Zrotation Xrotation Yrotation
          End Site
          {
            OFFSET -1.1221 -3.69964 12.103
          }
        }
      }
    }
  }
  JOINT lButtock
  {
    OFFSET 8.77824 4.35084 1.2192
    CHANNELS 3 Zrotation Xrotation Yrotation
    JOINT lThigh
    {
      OFFSET 0 -1.70687 -2.19456
      CHANNELS 3 Zrotation Xrotation Yrotation
      JOINT lShin
      {
        OFFSET 0 -36.8199 0.73152
        CHANNELS 3 Zrotation Xrotation Yrotation
        JOINT lFoot
        {
          OFFSET -0.73152 -45.1104 -5.12064
          CHANNELS 3 Zrotation Xrotation Yrotation
          End Site
          {
            OFFSET 1.1221 -3.69964 12.103
          }
        }
      }
    }
  }
}
MOTION
Frames:	8
Frame Time:	0.00833333
61.39 79.6713 -22.1155 -4.3714 10.0667 10.6946 9.31731 3.40341 -3.4799 -1.89882 1.36497 -0.764307 -0.665346 19.2531 -2.28899 9.00759 -45.0071 -1.03729 -0.0 0.0 0.0 -0.0 0.0 0.0 5.52132e-14 -1.65209e-13 2.18646e-13 78.3851 11.4883 -5.15602 -10.4033 -4.3895 18.5608 -0.167137 11.5706 1.64886 -1.68986e-09 1.32073e-09 1.44221e-09 -2.90254e-09 2.28741e-09 2.51133e-09 -1.68986e-09 1.32073e-09 1.4422e-09 7.73091 5.47488 0.417314 -1.68987e-09 1.32073e-09 1.4422e-09 2.90554 0.965183 0.102902 -1.68986e-09 1.32073e-09 1.44221e-09 10.2786 0.731801 0.0259123 -1.68987e-09 1.32073e-09 1.44221e-09 2.22167 -0.733487 -0.20892 5.50722e-14 -1.65222e-13 2.18608e-13 -70.7052 19.3128 -6.30613 16.8836 -9.53497 -31.5606 163.979 -4.10462 179.422 -6.04138e-10 -7.01788e-10 1.55071e-10 -9.03952e-10 -1.30651e-09 2.69915e-10 -6.04139e-10 -7.01789e-10 1.55073e-10 -7.73091 5.47488 -0.417314 -6.04139e-10 -7.01789e-10 1.55058e-10 -2.90554 0.965183 -0.102902 -6.04146e-10 -7.01791e-10 1.55066e-10 -10.2786 0.731801 -0.0259123 -6.0413e-10 -7.01791e-10 1.55056e-10 -2.22167 -0.733487 0.20892 -2.03217e-16 0.0 -3.88251e-19 -0.995807 -49.7926 -8.31171 -0.498106 45.6879 0.710386 0.428539 -21.8324 -0.396901 2.03217e-16 0.0 3.88251e-19 16.9583 -3.452 -2.84459 2.74936 76.9193 -4.97274 0.563427 6.2057 -3.26691
61.2401 79.9559 -21.0284 -4.703 9.6114 10.575 9.73421 3.47815 -2.92193 -1.96489 1.38902 -0.611998 -0.705836 19.1902 -2.33184 8.86008 -44.7863 -1.20573 -0.0 0.0 0.0 -0.0 0.0 0.0 7.0242e-14 -2.13091e-13 1.75726e-13 78.0493 12.0901 -4.62137 -10.4847 -4.44125 18.7137 -0.1663 11.5445 1.64501 -1.80647e-09 9.59055e-10 1.78982e-09 -3.10038e-09 1.66066e-09 3.11306e-09 -1.80647e-09 9.59057e-10 1.78982e-09 7.73091 5.47488 0.417314 -1.80648e-09 9.59058e-10 1.78982e-09 2.90554 0.965183 0.102902 -1.80647e-09 9.59058e-10 1.78982e-09 10.2786 0.731801 0.0259123 -1.80648e-09 9.5906e-10 1.78983e-09 2.22167 -0.733487 -0.20892 7.01544e-14 -2.13105e-13 1.75726e-13 -70.6867 19.0357 -5.59084 16.8188 -9.4708 -31.421 163.977 -4.2868 179.396 -5.91217e-10 -7.18799e-10 2.02983e-11 -8.82406e-10 -1.33724e-09 6.66517e-11 -5.91219e-10 -7.188e-10 2.03015e-11 -7.73091 5.47488 -0.417314 -5.91216e-10 -7.18801e-10 2.02888e-11 -2.90554 0.965183 -0.102902 -5.91225e-10 -7.18802e-10 2.02951e-11 -10.2786 0.731801 -0.0259123 -5.91209e-10 -7.18802e-10 2.02856e-11 -2.22167 -0.733487 0.20892 -2.03217e-16 0.0 -3.88251e-19 0.241691 -48.5119 -7.49224 -0.483144 45.0247 0.681587 0.655933 -22.2692 0.14212 2.03217e-16 0.0 3.88251e-19 17.3531 -5.25951 -2.33353 3.82887 79.8327 -6.06116 0.943804 5.23425 -5.31988
61.0852 80.2249 -19.9254 -5.0078 9.0991 10.5422 10.1086 3.50118 -2.38625 -2.04288 1.44863 -0.465934 -0.768032 19.0788 -2.3903 8.76443 -44.536 -1.38765 -0.0 0.0 0.0 -0.0 0.0 0.0 7.47113e-14 -2.6813e-13 1.34956e-13 77.7295 12.7865 -4.0682 -10.6087 -4.52047 18.9465 -0.164575 11.4862 1.63648 -1.8289e-09 4.63316e-10 2.23859e-09 -3.13536e-09 8.01021e-10 3.88825e-09 -1.82889e-09 4.63317e-10 2.23859e-09 7.73091 5.47488 0.417314 -1.8289e-09 4.63318e-10 2.23859e-09 2.90554 0.965183 0.102902 -1.8289e-09 4.63319e-10 2.23859e-09 10.2786 0.731801 0.0259123 -1.82891e-09 4.63321e-10 2.23859e-09 2.22167 -0.733487 -0.20892 7.46644e-14 -2.68142e-13 1.34935e-13 -70.6528 18.691 -4.80995 16.78 -9.43223 -31.3383 163.975 -4.54104 179.36 -5.09948e-10 -8.83586e-10 -1.39242e-10 -7.58172e-10 -1.61316e-09 -1.68049e-10 -5.0995e-10 -8.83586e-10 -1.39238e-10 -7.73091 5.47488 -0.417314 -5.09946e-10 -8.83587e-10 -1.39249e-10 -2.90554 0.965183 -0.102902 -5.09956e-10 -8.83588e-10 -1.39244e-10 -10.2786 0.731801 -0.0259123 -5.09941e-10 -8.83588e-10 -1.39253e-10 -2.22167 -0.733487 0.20892 -2.03217e-16 0.0 -3.88251e-19 1.32457 -47.2972 -6.77891 -0.464941 44.406 0.676949 0.646056 -22.705 0.188089 2.03217e-16 0.0 3.88251e-19 17.7099 -7.15906 -1.76639 5.61642 82.5618 -7.84992 1.16382 4.29336 -6.79311
60.9639 80.5077 -18.7794 -5.2482 8.6418 10.4874 10.4505 3.49443 -1.84782 -2.12322 1.53398 -0.318057 -0.852467 18.9328 -2.4575 8.72912 -44.2508 -1.56573 -0.0 0.0 0.0 -0.0 0.0 0.0 7.29375e-14 -3.30177e-13 8.9742e-14 77.4168 13.5826 -3.50243 -10.7732 -4.626 19.2577 -0.161638 11.3855 1.62173 -1.78503e-09 -1.70736e-10 2.77882e-09 -3.0555e-09 -2.98655e-10 4.82054e-09 -1.78502e-09 -1.70738e-10 2.77882e-09 7.73091 5.47488 0.417314 -1.78503e-09 -1.70736e-10 2.77882e-09 2.90554 0.965183 0.102902 -1.78503e-09 -1.70736e-10 2.77882e-09 10.2786 0.731801 0.0259123 -1.78504e-09 -1.70734e-10 2.77883e-09 2.22167 -0.733487 -0.20892 7.29287e-14 -3.30187e-13 8.96643e-14 -70.599 18.2991 -3.98154 16.7582 -9.41035 -31.2922 163.971 -4.84429 179.318 -3.77343e-10 -1.1468e-09 -3.27543e-10 -5.56668e-10 -2.05189e-09 -4.42228e-10 -3.77345e-10 -1.1468e-09 -3.27539e-10 -7.73091 5.47488 -0.417314 -3.7734e-10 -1.1468e-09 -3.27547e-10 -2.90554 0.965183 -0.102902 -3.7735e-10 -1.1468e-09 -3.27544e-10 -10.2786 0.731801 -0.0259123 -3.77336e-10 -1.1468e-09 -3.27554e-10 -2.22167 -0.733487 0.20892 -2.03217e-16 0.0 -3.88251e-19 2.32699 -46.1298 -6.09965 -0.445266 43.8122 0.683923 0.489015 -23.1355 -0.0653625 2.03217e-16 0.0 3.88251e-19 18.0689 -9.14754 -1.13431 9.10578 85.116 -11.3339 1.29718 3.29262 -8.03928
60.8521 80.8164 -17.5987 -5.4989 8.2285 10.4041 10.7769 3.4855 -1.32049 -2.21087 1.61343 -0.172372 -0.928762 18.7974 -2.51731 8.69445 -43.9856 -1.72569 -0.0 0.0 0.0 -0.0 0.0 0.0 5.66267e-14 -3.78209e-13 4.71916e-14 77.0892 14.4228 -2.90899 -10.9417 -4.73446 19.5785 -0.158555 11.2778 1.60598 -1.61086e-09 -8.04466e-10 3.2865e-09 -2.75095e-09 -1.39759e-09 5.69525e-09 -1.61083e-09 -8.0447e-10 3.28651e-09 7.73091 5.47488 0.417314 -1.61084e-09 -8.04467e-10 3.28651e-09 2.90554 0.965183 0.102902 -1.61086e-09 -8.04469e-10 3.28651e-09 10.2786 0.731801 0.0259123 -1.61086e-09 -8.04466e-10 3.28651e-09 2.22167 -0.733487 -0.20892 5.66428e-14 -3.78217e-13 4.7046e-14 -70.5424 17.8181 -3.09402 16.7269 -9.37975 -31.2247 163.967 -5.15147 179.274 -2.21713e-10 -1.42414e-09 -4.769e-10 -3.21846e-10 -2.5116e-09 -6.56766e-10 -2.21716e-10 -1.42414e-09 -4.76895e-10 -7.73091 5.47488 -0.417314 -2.21709e-10 -1.42414e-09 -4.76902e-10 -2.90554 0.965183 -0.102902 -2.2172e-10 -1.42414e-09 -4.769e-10 -10.2786 0.731801 -0.0259123 -2.21707e-10 -1.42414e-09 -4.7691e-10 -2.22167 -0.733487 0.20892 -2.03217e-16 0.0 -3.88251e-19 3.2635 -44.9615 -5.46581 -0.425564 43.2392 0.692545 0.295597 -23.567 -0.380477 2.03217e-16 0.0 3.88251e-19 18.4128 -11.2194 -0.448415 18.7109 87.4534 -20.9232 1.36668 2.26436 -9.1679
60.7304 81.1212 -16.4436 -5.7518 7.736 10.3639 11.104 3.50206 -0.818024 -2.31046 1.65534 -0.0328889 -0.966197 18.7178 -2.55375 8.59953 -43.7953 -1.85403 -0.0 0.0 0.0 -0.0 0.0 0.0 1.74851e-14 -3.91205e-13 1.44119e-14 76.7259 15.2511 -2.27283 -11.0783 -4.82294 19.8399 -0.156324 11.1986 1.59442 -1.24235e-09 -1.29924e-09 3.63763e-09 -2.11183e-09 -2.25501e-09 6.2977e-09 -1.24233e-09 -1.29924e-09 3.63764e-09 7.73091 5.47488 0.417314 -1.24234e-09 -1.29924e-09 3.63764e-09 2.90554 0.965183 0.102902 -1.24235e-09 -1.29924e-09 3.63764e-09 10.2786 0.731801 0.0259123 -1.24236e-09 -1.29924e-09 3.63764e-09 2.22167 -0.733487 -0.20892 1.75022e-14 -3.91212e-13 1.42131e-14 -70.4966 17.2056 -2.13689 16.6596 -9.31479 -31.0779 163.964 -5.4176 179.236 -7.13701e-11 -1.63134e-09 -5.19607e-10 -9.7655e-11 -2.85048e-09 -7.12542e-10 -7.1374e-11 -1.63134e-09 -5.19601e-10 -7.73091 5.47488 -0.417314 -7.13662e-11 -1.63134e-09 -5.19607e-10 -2.90554 0.965183 -0.102902 -7.13772e-11 -1.63134e-09 -5.19606e-10 -10.2786 0.731801 -0.0259123 -7.13655e-11 -1.63134e-09 -5.19617e-10 -2.22167 -0.733487 0.20892 -2.03217e-16 0.0 -3.88251e-19 4.147 -43.7441 -4.8905 -0.407835 42.6827 0.693243 0.184322 -24.0073 -0.516479 2.03217e-16 0.0 3.88251e-19 18.7229 -13.369 0.280786 78.3153 89.1192 -80.4973 1.39059 1.2405 -10.2878
60.6005 81.3763 -15.2715 -5.9969 7.1387 10.3143 11.4413 3.5571 -0.347985 -2.43153 1.64303 0.0985248 -0.952391 18.7244 -2.55427 8.44144 -43.7158 -1.92341 -0.0 0.0 0.0 -0.0 0.0 0.0 -7.23579e-14 -3.58877e-13 -9.96447e-15 76.3107 16.0757 -1.5698 -11.1616 -4.87713 19.9998 -0.155581 11.1716 1.59048 -4.74337e-10 -1.7063e-09 3.91886e-09 -7.82759e-10 -2.95929e-09 6.7756e-09 -4.74313e-10 -1.7063e-09 3.91886e-09 7.73091 5.47488 0.417314 -4.7432e-10 -1.7063e-09 3.91888e-09 2.90554 0.965183 0.102902 -4.74335e-10 -1.7063e-09 3.91887e-09 10.2786 0.731801 0.0259123 -4.74343e-10 -1.7063e-09 3.91887e-09 2.22167 -0.733487 -0.20892 -7.23811e-14 -3.58885e-13 -1.01997e-14 -70.4567 16.4322 -1.09735 16.5439 -9.20322 -30.8279 163.961 -5.60477 179.21 1.0299e-10 -1.81055e-09 -4.08558e-10 1.58253e-10 -3.13811e-09 -5.36039e-10 1.02985e-10 -1.81055e-09 -4.0855e-10 -7.73091 5.47488 -0.417314 1.02993e-10 -1.81054e-09 -4.08558e-10 -2.90554 0.965183 -0.102902 1.02982e-10 -1.81055e-09 -4.08557e-10 -10.2786 0.731801 -0.0259123 1.02994e-10 -1.81054e-09 -4.08568e-10 -2.22167 -0.733487 0.20892 -2.03217e-16 0.0 -3.88251e-19 4.97646 -42.4698 -4.38528 -0.39348 42.1576 0.68464 0.176552 -24.4635 -0.439596 2.03217e-16 0.0 3.88251e-19 19.0022 -15.5945 1.06639 154.329 87.9034 -156.463 1.36954 0.188915 -11.4205
60.4906 81.6137 -14.084 -6.1788 6.5643 10.2033 11.7777 3.63405 0.0983213 -2.56842 1.59612 0.224263 -0.904983 18.787 -2.53022 8.24673 -43.7109 -1.94994 -0.0 0.0 0.0 -0.0 0.0 0.0 -1.99926e-13 -2.93998e-13 -2.86405e-14 75.8533 16.9176 -0.812658 -11.2152 -4.91227 20.1028 -0.155641 11.1731 1.5907 5.96344e-10 -2.07018e-09 4.15642e-09 1.06897e-09 -3.58798e-09 7.17514e-09 5.96365e-10 -2.07019e-09 4.15642e-09 7.73091 5.47488 0.417314 5.9636e-10 -2.07019e-09 4.15643e-09 2.90554 0.965183 0.102902 5.96353e-10 -2.07019e-09 4.15643e-09 10.2786 0.731801 0.0259123 5.9634e-10 -2.07018e-09 4.15643e-09 2.22167 -0.733487 -0.20892 -2.0002e-13 -2.94009e-13 -2.89076e-14 -70.4015 15.5252 0.0111684 16.3946 -9.05957 -30.5088 163.959 -5.74565 179.19 3.04181e-10 -1.98517e-09 -1.89547e-10 4.51297e-10 -3.41434e-09 -1.95815e-10 3.04177e-10 -1.98517e-09 -1.89537e-10 -7.73091 5.47488 -0.417314 3.04183e-10 -1.98517e-09 -1.89546e-10 -2.90554 0.965183 -0.102902 3.04173e-10 -1.98517e-09 -1.89546e-10 -10.2786 0.731801 -0.0259123 3.04185e-10 -1.98517e-09 -1.89556e-10 -2.22167 -0.733487 0.20892 -2.03217e-16 0.0 -3.88251e-19 5.75334 -41.1641 -3.93473 -0.381441 41.6608 0.671637 0.216914 -24.93 -0.266309 2.03217e-16 0.0 3.88251e-19 19.2757 -17.8963 1.91859 165.923 86.0909 -167.994 1.29648 -0.891679 -12.513
